<svg width="314" height="56" viewBox="0 0 314 56" fill="none" xmlns="http://www.w3.org/2000/svg">
<g clip-path="url(#clip0_76_3281)">
<path d="M74.9179 33.5832V21.4695H69.5747V13.9874H72.2484C74.3873 13.9874 75.4568 12.8589 75.4568 10.6021V4.02948H84.0084V13.9874H91.6084V21.4695H83.7094V32.5137C83.7094 35.84 85.4316 37.6211 88.5179 37.6211H91.8442V45.28H86.6779C78.8968 45.28 74.9179 40.6484 74.9179 33.5832Z" fill="white"/>
<path d="M110.728 38.7495C114.589 38.7495 116.547 37.3853 117.916 34.8884L124.627 39.3432C122.194 42.9053 118.156 46.0547 110.493 46.0547C100.337 46.0547 93.7473 38.9895 93.7473 29.6632C93.7473 20.3368 100.935 13.2716 109.899 13.2716C119.996 13.2716 125.992 21.1705 125.992 29.0105C125.992 30.3747 125.933 31.5621 125.815 32.3368H102.358C103.368 36.4337 106.573 38.7495 110.733 38.7495H110.728ZM117.735 26.5768C116.905 22.48 114.173 19.9242 110.135 19.9242C106.097 19.9242 103.128 22.2989 102.236 26.5768H117.735Z" fill="white"/>
<path d="M147.903 13.2126V21.4653C142.56 21.4653 139.41 23.899 139.41 28.059V45.28H130.623V13.9832H138.939V17.0105C141.078 14.7537 144.223 13.2084 147.907 13.2084L147.903 13.2126Z" fill="white"/>
<path d="M182.821 13.9831V45.28H174.686V41.8358C172.429 44.5095 169.162 46.0505 165.065 46.0505C156.038 46.0505 149.507 38.9853 149.507 29.6589C149.507 20.3326 156.038 13.8021 165.065 13.8021C169.162 13.8021 172.429 15.2253 174.686 17.781V13.9789H182.821V13.9831ZM174.387 29.6589C174.387 24.5516 171.12 20.9895 166.312 20.9895C161.503 20.9895 158.236 24.6695 158.236 29.6589C158.236 34.6484 161.621 38.2695 166.312 38.2695C171.002 38.2695 174.387 34.7663 174.387 29.6589Z" fill="white"/>
<path d="M222.429 29.6632C222.429 38.9853 215.895 46.0547 206.872 46.0547C202.834 46.0547 199.566 44.5684 197.25 42.0169V45.2842H189.116V4.05475H197.903V16.72C200.219 14.5221 203.368 13.2758 207.107 13.2758C216.135 13.2758 222.429 20.2821 222.429 29.6674V29.6632ZM213.701 29.6632C213.701 24.6737 210.316 20.9937 205.684 20.9937C200.813 20.9937 197.549 24.5558 197.549 29.6632C197.549 34.7705 200.817 38.2737 205.684 38.2737C210.552 38.2737 213.701 34.6526 213.701 29.6632Z" fill="white"/>
<path d="M256.253 13.9832C256.354 13.9832 256.425 14.0842 256.387 14.1768L244.939 45.28L241.112 55.8147C241.091 55.8737 241.036 55.9116 240.977 55.9116H232.619C232.518 55.9116 232.446 55.8105 232.484 55.7137L236.543 45.4779C236.581 45.3811 236.509 45.28 236.408 45.28H233.815C233.752 45.28 233.697 45.2421 233.676 45.1832L223.322 14.1768C223.293 14.0842 223.36 13.9874 223.461 13.9874H232.236C232.299 13.9874 232.358 14.0295 232.375 14.0926L239.28 37.8274C239.318 37.9621 239.512 37.9663 239.558 37.8316L247.339 14.0884C247.36 14.0295 247.415 13.9874 247.478 13.9874H256.253V13.9832Z" fill="white"/>
<path d="M262.573 33.5832V21.4695H257.229V13.9874H259.903C262.042 13.9874 263.112 12.8589 263.112 10.6021V4.02948H271.663V13.9874H279.263V21.4695H271.364V32.5137C271.364 35.84 273.086 37.6211 276.173 37.6211H279.499V45.28H274.333C266.552 45.28 262.573 40.6484 262.573 33.5832Z" fill="white"/>
<path d="M298.383 38.7495C302.244 38.7495 304.202 37.3853 305.571 34.8884L312.282 39.3432C309.848 42.9053 305.811 46.0547 298.147 46.0547C287.992 46.0547 281.402 38.9895 281.402 29.6632C281.402 20.3368 288.589 13.2716 297.554 13.2716C307.651 13.2716 313.646 21.1705 313.646 29.0105C313.646 30.3747 313.587 31.5621 313.469 32.3368H290.013C291.023 36.4337 294.227 38.7495 298.387 38.7495H298.383ZM305.389 26.5768C304.56 22.48 301.827 19.9242 297.789 19.9242C293.752 19.9242 290.783 22.2989 289.891 26.5768H305.389Z" fill="white"/>
<path d="M14.5263 46.3453C22.1793 46.3453 28.3832 40.1414 28.3832 32.4884C28.3832 24.8355 22.1793 18.6316 14.5263 18.6316C6.87341 18.6316 0.669495 24.8355 0.669495 32.4884C0.669495 40.1414 6.87341 46.3453 14.5263 46.3453Z" fill="white"/>
<path d="M22.0463 0.206329H7.01055C3.36664 0.206329 0.412659 3.16031 0.412659 6.80422V11.3937C0.412659 15.0376 3.36664 17.9916 7.01055 17.9916H22.0463C25.6903 17.9916 28.6442 15.0376 28.6442 11.3937V6.80422C28.6442 3.16031 25.6903 0.206329 22.0463 0.206329Z" fill="white"/>
<path d="M46.8084 0.362122H41.0905C36.5513 0.362122 32.8716 4.04187 32.8716 8.58107V38.1432C32.8716 42.6824 36.5513 46.3621 41.0905 46.3621H46.8084C51.3476 46.3621 55.0274 42.6824 55.0274 38.1432V8.58107C55.0274 4.04187 51.3476 0.362122 46.8084 0.362122Z" fill="white"/>
</g>
<defs>
<clipPath id="clip0_76_3281">
<rect width="313.684" height="56" fill="white"/>
</clipPath>
</defs>
</svg>
