<svg width="180" height="32" viewBox="0 0 180 32" fill="none" xmlns="http://www.w3.org/2000/svg">
<g id="Terabyte logo-02 Ateneo Blue" clip-path="url(#clip0_738_2636)">
<g id="Group">
<path id="Vector" d="M42.9899 19.1903V12.2682H39.9238V7.99271H41.4581C42.6854 7.99271 43.2991 7.3479 43.2991 6.05828V2.30249H48.2062V7.99271H52.5673V12.2682H48.0347V18.5792C48.0347 20.4799 49.0229 21.4977 50.7939 21.4977H52.7026V25.8742H49.7381C45.2731 25.8742 42.9899 23.2276 42.9899 19.1903Z" fill="#0A4C68"/>
<path id="Vector_2" d="M63.5391 22.1425C65.7547 22.1425 66.8781 21.363 67.6634 19.9362L71.5147 22.4818C70.1181 24.5173 67.8011 26.317 63.4038 26.317C57.5761 26.317 53.7949 22.2797 53.7949 16.9504C53.7949 11.621 57.9192 7.58374 63.0631 7.58374C68.8569 7.58374 72.2975 12.0974 72.2975 16.5774C72.2975 17.357 72.2636 18.0355 72.196 18.4782H58.7359C59.3157 20.8192 61.1544 22.1425 63.5415 22.1425H63.5391ZM67.5595 15.1867C67.0835 12.8457 65.5155 11.3852 63.1984 11.3852C60.8814 11.3852 59.178 12.7422 58.6658 15.1867H67.5595Z" fill="#0A4C68"/>
<path id="Vector_3" d="M84.8708 7.55002V12.2658C81.8047 12.2658 79.9975 13.6565 79.9975 16.0336V25.8742H74.9551V7.99031H79.7269V9.72024C80.9543 8.43061 82.7591 7.54761 84.8732 7.54761L84.8708 7.55002Z" fill="#0A4C68"/>
<path id="Vector_4" d="M104.907 7.99042V25.8743H100.239V23.9062C98.9443 25.434 97.0694 26.3146 94.7185 26.3146C89.5384 26.3146 85.791 22.2773 85.791 16.948C85.791 11.6187 89.5384 7.88696 94.7185 7.88696C97.0694 7.88696 98.9443 8.7002 100.239 10.1607V7.98802H104.907V7.99042ZM100.068 16.948C100.068 14.0295 98.1929 11.994 95.4337 11.994C92.6745 11.994 90.7996 14.0969 90.7996 16.948C90.7996 19.7991 92.7422 21.8683 95.4337 21.8683C98.1252 21.8683 100.068 19.8665 100.068 16.948Z" fill="#0A4C68"/>
<path id="Vector_5" d="M127.636 16.9503C127.636 22.2772 123.886 26.3169 118.708 26.3169C116.391 26.3169 114.516 25.4676 113.187 24.0095V25.8766H108.52V2.31689H113.562V9.55418C114.891 8.29824 116.698 7.58607 118.844 7.58607C124.024 7.58607 127.636 11.5897 127.636 16.9527V16.9503ZM122.627 16.9503C122.627 14.0992 120.685 11.9963 118.027 11.9963C115.231 11.9963 113.359 14.0318 113.359 16.9503C113.359 19.8688 115.234 21.8706 118.027 21.8706C120.82 21.8706 122.627 19.8014 122.627 16.9503Z" fill="#0A4C68"/>
<path id="Vector_6" d="M147.044 7.99023C147.102 7.99023 147.143 8.04798 147.121 8.10092L140.552 25.8741L138.356 31.894C138.344 31.9277 138.312 31.9493 138.278 31.9493H133.482C133.424 31.9493 133.383 31.8916 133.405 31.8363L135.734 25.9872C135.756 25.9319 135.715 25.8741 135.657 25.8741H134.168C134.132 25.8741 134.101 25.8525 134.089 25.8188L128.148 8.10092C128.131 8.04798 128.169 7.99264 128.227 7.99264H133.262C133.299 7.99264 133.333 8.0167 133.342 8.05279L137.305 21.6155C137.326 21.6925 137.437 21.6949 137.464 21.6179L141.929 8.05038C141.941 8.0167 141.973 7.99264 142.009 7.99264H147.044V7.99023Z" fill="#0A4C68"/>
<path id="Vector_7" d="M150.671 19.1903V12.2682H147.604V7.99271H149.139C150.366 7.99271 150.98 7.3479 150.98 6.05828V2.30249H155.887V7.99271H160.248V12.2682H155.715V18.5792C155.715 20.4799 156.704 21.4977 158.475 21.4977H160.383V25.8742H157.419C152.954 25.8742 150.671 23.2276 150.671 19.1903Z" fill="#0A4C68"/>
<path id="Vector_8" d="M171.22 22.1425C173.435 22.1425 174.559 21.363 175.344 19.9362L179.195 22.4818C177.799 24.5173 175.482 26.317 171.084 26.317C165.257 26.317 161.476 22.2797 161.476 16.9504C161.476 11.621 165.6 7.58374 170.744 7.58374C176.538 7.58374 179.978 12.0974 179.978 16.5774C179.978 17.357 179.944 18.0355 179.877 18.4782H166.417C166.996 20.8192 168.835 22.1425 171.222 22.1425H171.22ZM175.24 15.1867C174.764 12.8457 173.196 11.3852 170.879 11.3852C168.562 11.3852 166.859 12.7422 166.346 15.1867H175.24Z" fill="#0A4C68"/>
</g>
<g id="Group_2">
<g id="Group_3">
<path id="Vector_9" d="M8.3352 26.4831C12.7266 26.4831 16.2866 22.938 16.2866 18.5649C16.2866 14.1918 12.7266 10.6467 8.3352 10.6467C3.94376 10.6467 0.383789 14.1918 0.383789 18.5649C0.383789 22.938 3.94376 26.4831 8.3352 26.4831Z" fill="#0A4C68"/>
<path id="Vector_10" d="M12.6503 0.11792H4.02237C1.9314 0.11792 0.236328 1.80591 0.236328 3.88814V6.5107C0.236328 8.59294 1.9314 10.2809 4.02237 10.2809H12.6503C14.7413 10.2809 16.4363 8.59294 16.4363 6.5107V3.88814C16.4363 1.80591 14.7413 0.11792 12.6503 0.11792Z" fill="#0A4C68"/>
</g>
<path id="Vector_11" d="M26.8596 0.207031H23.5785C20.9738 0.207031 18.8623 2.30975 18.8623 4.90357V21.7962C18.8623 24.39 20.9738 26.4927 23.5785 26.4927H26.8596C29.4643 26.4927 31.5759 24.39 31.5759 21.7962V4.90357C31.5759 2.30975 29.4643 0.207031 26.8596 0.207031Z" fill="#0A4C68"/>
</g>
</g>
<defs>
<clipPath id="clip0_738_2636">
<rect width="180" height="32" fill="white"/>
</clipPath>
</defs>
</svg>
