<svg width="180" height="32" viewBox="0 0 180 32" fill="none" xmlns="http://www.w3.org/2000/svg">
<g id="Terabyte logo-05 White" clip-path="url(#clip0_679_2381)">
<g id="Group">
<path id="Vector" d="M42.9899 19.1906V12.2684H39.9238V7.99296H41.4581C42.6854 7.99296 43.2991 7.34814 43.2991 6.05852V2.30273H48.2062V7.99296H52.5673V12.2684H48.0347V18.5794C48.0347 20.4802 49.0229 21.4979 50.7939 21.4979H52.7026V25.8745H49.7381C45.2731 25.8745 42.9899 23.2278 42.9899 19.1906Z" fill="white"/>
<path id="Vector_2" d="M63.5391 22.1428C65.7547 22.1428 66.8781 21.3632 67.6634 19.9365L71.5147 22.482C70.1181 24.5175 67.8011 26.3172 63.4038 26.3172C57.5761 26.3172 53.7949 22.2799 53.7949 16.9506C53.7949 11.6213 57.9192 7.58398 63.0631 7.58398C68.8569 7.58398 72.2975 12.0977 72.2975 16.5777C72.2975 17.3572 72.2636 18.0357 72.196 18.4784H58.7359C59.3157 20.8195 61.1544 22.1428 63.5415 22.1428H63.5391ZM67.5595 15.187C67.0835 12.8459 65.5155 11.3855 63.1984 11.3855C60.8814 11.3855 59.178 12.7425 58.6658 15.187H67.5595Z" fill="white"/>
<path id="Vector_3" d="M84.8708 7.55026V12.2661C81.8047 12.2661 79.9975 13.6567 79.9975 16.0339V25.8745H74.9551V7.99056H79.7269V9.72048C80.9543 8.43086 82.7591 7.54785 84.8732 7.54785L84.8708 7.55026Z" fill="white"/>
<path id="Vector_4" d="M104.907 7.99066V25.8746H100.239V23.9065C98.9443 25.4343 97.0694 26.3149 94.7185 26.3149C89.5384 26.3149 85.791 22.2776 85.791 16.9483C85.791 11.6189 89.5384 7.88721 94.7185 7.88721C97.0694 7.88721 98.9443 8.70044 100.239 10.1609V7.98826H104.907V7.99066ZM100.068 16.9483C100.068 14.0298 98.1929 11.9943 95.4337 11.9943C92.6745 11.9943 90.7996 14.0971 90.7996 16.9483C90.7996 19.7994 92.7422 21.8686 95.4337 21.8686C98.1252 21.8686 100.068 19.8668 100.068 16.9483Z" fill="white"/>
<path id="Vector_5" d="M127.636 16.9508C127.636 22.2777 123.886 26.3174 118.708 26.3174C116.391 26.3174 114.516 25.4681 113.187 24.01V25.8771H108.52V2.31738H113.562V9.55467C114.891 8.29873 116.698 7.58655 118.844 7.58655C124.024 7.58655 127.636 11.5902 127.636 16.9532V16.9508ZM122.627 16.9508C122.627 14.0996 120.685 11.9968 118.027 11.9968C115.231 11.9968 113.359 14.0323 113.359 16.9508C113.359 19.8693 115.234 21.8711 118.027 21.8711C120.82 21.8711 122.627 19.8019 122.627 16.9508Z" fill="white"/>
<path id="Vector_6" d="M147.044 7.99072C147.102 7.99072 147.143 8.04847 147.122 8.1014L140.552 25.8746L138.356 31.8945C138.344 31.9282 138.313 31.9498 138.279 31.9498H133.483C133.425 31.9498 133.384 31.8921 133.405 31.8367L135.735 25.9877C135.756 25.9324 135.715 25.8746 135.657 25.8746H134.169C134.133 25.8746 134.101 25.853 134.089 25.8193L128.148 8.1014C128.131 8.04847 128.17 7.99313 128.228 7.99313H133.263C133.299 7.99313 133.333 8.01719 133.343 8.05328L137.305 21.616C137.327 21.693 137.438 21.6954 137.465 21.6184L141.93 8.05087C141.942 8.01719 141.973 7.99313 142.009 7.99313H147.044V7.99072Z" fill="white"/>
<path id="Vector_7" d="M150.671 19.1906V12.2684H147.605V7.99296H149.139C150.367 7.99296 150.98 7.34814 150.98 6.05852V2.30273H155.887V7.99296H160.248V12.2684H155.716V18.5794C155.716 20.4802 156.704 21.4979 158.475 21.4979H160.384V25.8745H157.419C152.954 25.8745 150.671 23.2278 150.671 19.1906Z" fill="white"/>
<path id="Vector_8" d="M171.22 22.1428C173.435 22.1428 174.559 21.3632 175.344 19.9365L179.195 22.482C177.799 24.5175 175.482 26.3172 171.084 26.3172C165.257 26.3172 161.476 22.2799 161.476 16.9506C161.476 11.6213 165.6 7.58398 170.744 7.58398C176.538 7.58398 179.978 12.0977 179.978 16.5777C179.978 17.3572 179.944 18.0357 179.877 18.4784H166.417C166.996 20.8195 168.835 22.1428 171.222 22.1428H171.22ZM175.24 15.187C174.764 12.8459 173.196 11.3855 170.879 11.3855C168.562 11.3855 166.859 12.7425 166.346 15.187H175.24Z" fill="white"/>
</g>
<g id="Group_2">
<g id="Group_3">
<path id="Vector_9" d="M8.33569 26.4829C12.7271 26.4829 16.2871 22.9378 16.2871 18.5647C16.2871 14.1916 12.7271 10.6465 8.33569 10.6465C3.94424 10.6465 0.384277 14.1916 0.384277 18.5647C0.384277 22.9378 3.94424 26.4829 8.33569 26.4829Z" fill="white"/>
<path id="Vector_10" d="M12.6508 0.117676H4.02286C1.93188 0.117676 0.236816 1.80566 0.236816 3.8879V6.51046C0.236816 8.59269 1.93188 10.2807 4.02286 10.2807H12.6508C14.7417 10.2807 16.4368 8.59269 16.4368 6.51046V3.8879C16.4368 1.80566 14.7417 0.117676 12.6508 0.117676Z" fill="white"/>
</g>
<path id="Vector_11" d="M26.8601 0.206543H23.579C20.9743 0.206543 18.8628 2.30926 18.8628 4.90309V21.7957C18.8628 24.3895 20.9743 26.4923 23.579 26.4923H26.8601C29.4648 26.4923 31.5764 24.3895 31.5764 21.7957V4.90309C31.5764 2.30926 29.4648 0.206543 26.8601 0.206543Z" fill="white"/>
</g>
</g>
<defs>
<clipPath id="clip0_679_2381">
<rect width="180" height="32" fill="white"/>
</clipPath>
</defs>
</svg>
